<mxfile host="app.diagrams.net" agent="Mozilla/5.0 (Windows NT 10.0; Win64; x64) AppleWebKit/537.36 (KHTML, like Gecko) Chrome/131.0.0.0 Safari/537.36" version="24.8.6">
  <diagram name="Lapa-1" id="ODxWLyL7xiED9TAJw6he">
    <mxGraphModel dx="3434" dy="2587" grid="1" gridSize="10" guides="1" tooltips="1" connect="1" arrows="1" fold="1" page="1" pageScale="1" pageWidth="827" pageHeight="1169" math="0" shadow="0">
      <root>
        <mxCell id="0" />
        <mxCell id="1" parent="0" />
        <mxCell id="qAF3_04ZeRXYkpaXE9Lb-2" style="edgeStyle=orthogonalEdgeStyle;rounded=0;orthogonalLoop=1;jettySize=auto;html=1;exitX=1;exitY=0;exitDx=0;exitDy=0;" edge="1" parent="1" source="qAF3_04ZeRXYkpaXE9Lb-1" target="qAF3_04ZeRXYkpaXE9Lb-4">
          <mxGeometry relative="1" as="geometry">
            <mxPoint x="280" y="100" as="targetPoint" />
          </mxGeometry>
        </mxCell>
        <mxCell id="qAF3_04ZeRXYkpaXE9Lb-5" style="edgeStyle=orthogonalEdgeStyle;rounded=0;orthogonalLoop=1;jettySize=auto;html=1;exitX=1;exitY=1;exitDx=0;exitDy=0;" edge="1" parent="1" source="qAF3_04ZeRXYkpaXE9Lb-1">
          <mxGeometry relative="1" as="geometry">
            <mxPoint x="280" y="270" as="targetPoint" />
          </mxGeometry>
        </mxCell>
        <mxCell id="qAF3_04ZeRXYkpaXE9Lb-39" style="edgeStyle=orthogonalEdgeStyle;rounded=0;orthogonalLoop=1;jettySize=auto;html=1;exitX=0.5;exitY=1;exitDx=0;exitDy=0;" edge="1" parent="1" source="qAF3_04ZeRXYkpaXE9Lb-1" target="qAF3_04ZeRXYkpaXE9Lb-40">
          <mxGeometry relative="1" as="geometry">
            <mxPoint x="80" y="360" as="targetPoint" />
          </mxGeometry>
        </mxCell>
        <mxCell id="qAF3_04ZeRXYkpaXE9Lb-1" value="Go to spawn()" style="ellipse;whiteSpace=wrap;html=1;" vertex="1" parent="1">
          <mxGeometry x="-240" y="150" width="120" height="80" as="geometry" />
        </mxCell>
        <mxCell id="qAF3_04ZeRXYkpaXE9Lb-16" style="edgeStyle=orthogonalEdgeStyle;rounded=0;orthogonalLoop=1;jettySize=auto;html=1;exitX=1;exitY=0.5;exitDx=0;exitDy=0;" edge="1" parent="1" source="qAF3_04ZeRXYkpaXE9Lb-4">
          <mxGeometry relative="1" as="geometry">
            <mxPoint x="380" y="100" as="targetPoint" />
          </mxGeometry>
        </mxCell>
        <mxCell id="qAF3_04ZeRXYkpaXE9Lb-4" value="Go in the cave to the right" style="ellipse;whiteSpace=wrap;html=1;" vertex="1" parent="1">
          <mxGeometry x="220" y="60" width="120" height="80" as="geometry" />
        </mxCell>
        <mxCell id="qAF3_04ZeRXYkpaXE9Lb-9" style="edgeStyle=orthogonalEdgeStyle;rounded=0;orthogonalLoop=1;jettySize=auto;html=1;exitX=1;exitY=0;exitDx=0;exitDy=0;" edge="1" parent="1" source="qAF3_04ZeRXYkpaXE9Lb-7" target="qAF3_04ZeRXYkpaXE9Lb-10">
          <mxGeometry relative="1" as="geometry">
            <mxPoint x="440" y="230" as="targetPoint" />
          </mxGeometry>
        </mxCell>
        <mxCell id="qAF3_04ZeRXYkpaXE9Lb-13" style="edgeStyle=orthogonalEdgeStyle;rounded=0;orthogonalLoop=1;jettySize=auto;html=1;exitX=1;exitY=1;exitDx=0;exitDy=0;entryX=0;entryY=0.5;entryDx=0;entryDy=0;" edge="1" parent="1" source="qAF3_04ZeRXYkpaXE9Lb-7" target="qAF3_04ZeRXYkpaXE9Lb-81">
          <mxGeometry relative="1" as="geometry">
            <mxPoint x="430" y="380" as="targetPoint" />
          </mxGeometry>
        </mxCell>
        <mxCell id="qAF3_04ZeRXYkpaXE9Lb-7" value="Explore to the left" style="ellipse;whiteSpace=wrap;html=1;" vertex="1" parent="1">
          <mxGeometry x="220" y="270" width="120" height="80" as="geometry" />
        </mxCell>
        <mxCell id="qAF3_04ZeRXYkpaXE9Lb-11" style="edgeStyle=orthogonalEdgeStyle;rounded=0;orthogonalLoop=1;jettySize=auto;html=1;exitX=1;exitY=0.5;exitDx=0;exitDy=0;" edge="1" parent="1" source="qAF3_04ZeRXYkpaXE9Lb-10">
          <mxGeometry relative="1" as="geometry">
            <mxPoint x="730" y="230" as="targetPoint" />
          </mxGeometry>
        </mxCell>
        <mxCell id="qAF3_04ZeRXYkpaXE9Lb-56" value="&lt;font style=&quot;font-size: 16px;&quot;&gt;Else&lt;/font&gt;" style="edgeLabel;html=1;align=center;verticalAlign=middle;resizable=0;points=[];" vertex="1" connectable="0" parent="qAF3_04ZeRXYkpaXE9Lb-11">
          <mxGeometry x="-0.0667" y="-2" relative="1" as="geometry">
            <mxPoint as="offset" />
          </mxGeometry>
        </mxCell>
        <mxCell id="qAF3_04ZeRXYkpaXE9Lb-54" style="edgeStyle=orthogonalEdgeStyle;rounded=0;orthogonalLoop=1;jettySize=auto;html=1;exitX=1;exitY=1;exitDx=0;exitDy=0;entryX=0;entryY=0.5;entryDx=0;entryDy=0;" edge="1" parent="1" source="qAF3_04ZeRXYkpaXE9Lb-10" target="qAF3_04ZeRXYkpaXE9Lb-53">
          <mxGeometry relative="1" as="geometry" />
        </mxCell>
        <mxCell id="qAF3_04ZeRXYkpaXE9Lb-55" value="&lt;span style=&quot;font-size: 13px;&quot;&gt;If Eye of Cthulu deafeated&lt;/span&gt;" style="edgeLabel;html=1;align=center;verticalAlign=middle;resizable=0;points=[];" vertex="1" connectable="0" parent="qAF3_04ZeRXYkpaXE9Lb-54">
          <mxGeometry x="0.0109" y="1" relative="1" as="geometry">
            <mxPoint as="offset" />
          </mxGeometry>
        </mxCell>
        <mxCell id="qAF3_04ZeRXYkpaXE9Lb-77" value="&lt;div style=&quot;&quot;&gt;Option appears only if Eye of cthulu has been defeated&lt;/div&gt;" style="edgeLabel;html=1;align=center;verticalAlign=middle;resizable=0;points=[];" vertex="1" connectable="0" parent="qAF3_04ZeRXYkpaXE9Lb-54">
          <mxGeometry x="-0.5489" relative="1" as="geometry">
            <mxPoint x="20" y="52" as="offset" />
          </mxGeometry>
        </mxCell>
        <mxCell id="qAF3_04ZeRXYkpaXE9Lb-10" value="Go in the corruption biome" style="ellipse;whiteSpace=wrap;html=1;" vertex="1" parent="1">
          <mxGeometry x="430" y="190" width="120" height="80" as="geometry" />
        </mxCell>
        <mxCell id="qAF3_04ZeRXYkpaXE9Lb-18" style="edgeStyle=orthogonalEdgeStyle;rounded=0;orthogonalLoop=1;jettySize=auto;html=1;exitX=1;exitY=0.5;exitDx=0;exitDy=0;" edge="1" parent="1" target="qAF3_04ZeRXYkpaXE9Lb-19">
          <mxGeometry relative="1" as="geometry">
            <mxPoint x="570" y="100" as="targetPoint" />
            <mxPoint x="500" y="100" as="sourcePoint" />
          </mxGeometry>
        </mxCell>
        <mxCell id="qAF3_04ZeRXYkpaXE9Lb-20" style="edgeStyle=orthogonalEdgeStyle;rounded=0;orthogonalLoop=1;jettySize=auto;html=1;exitX=1;exitY=0;exitDx=0;exitDy=0;" edge="1" parent="1" target="qAF3_04ZeRXYkpaXE9Lb-21">
          <mxGeometry relative="1" as="geometry">
            <mxPoint x="520" y="30" as="targetPoint" />
            <mxPoint x="482.42640687119274" y="71.7157287525381" as="sourcePoint" />
          </mxGeometry>
        </mxCell>
        <mxCell id="qAF3_04ZeRXYkpaXE9Lb-25" style="edgeStyle=orthogonalEdgeStyle;rounded=0;orthogonalLoop=1;jettySize=auto;html=1;exitX=0;exitY=0;exitDx=0;exitDy=0;" edge="1" parent="1" target="qAF3_04ZeRXYkpaXE9Lb-26">
          <mxGeometry relative="1" as="geometry">
            <mxPoint x="380" y="-30" as="targetPoint" />
            <mxPoint x="397.57359312880726" y="71.7157287525381" as="sourcePoint" />
          </mxGeometry>
        </mxCell>
        <mxCell id="qAF3_04ZeRXYkpaXE9Lb-23" style="edgeStyle=orthogonalEdgeStyle;rounded=0;orthogonalLoop=1;jettySize=auto;html=1;exitX=1;exitY=0.5;exitDx=0;exitDy=0;" edge="1" parent="1" source="qAF3_04ZeRXYkpaXE9Lb-19">
          <mxGeometry relative="1" as="geometry">
            <mxPoint x="640" y="100.00000000000023" as="targetPoint" />
          </mxGeometry>
        </mxCell>
        <mxCell id="qAF3_04ZeRXYkpaXE9Lb-71" style="edgeStyle=orthogonalEdgeStyle;rounded=0;orthogonalLoop=1;jettySize=auto;html=1;entryX=0;entryY=0.5;entryDx=0;entryDy=0;" edge="1" parent="1" source="qAF3_04ZeRXYkpaXE9Lb-19" target="qAF3_04ZeRXYkpaXE9Lb-69">
          <mxGeometry relative="1" as="geometry" />
        </mxCell>
        <mxCell id="qAF3_04ZeRXYkpaXE9Lb-19" value="open it" style="ellipse;whiteSpace=wrap;html=1;" vertex="1" parent="1">
          <mxGeometry x="550" y="60" width="120" height="80" as="geometry" />
        </mxCell>
        <mxCell id="qAF3_04ZeRXYkpaXE9Lb-28" style="edgeStyle=orthogonalEdgeStyle;rounded=0;orthogonalLoop=1;jettySize=auto;html=1;exitX=1;exitY=0;exitDx=0;exitDy=0;entryX=0.5;entryY=1;entryDx=0;entryDy=0;" edge="1" parent="1" source="qAF3_04ZeRXYkpaXE9Lb-21" target="qAF3_04ZeRXYkpaXE9Lb-27">
          <mxGeometry relative="1" as="geometry" />
        </mxCell>
        <mxCell id="qAF3_04ZeRXYkpaXE9Lb-21" value="disarm the traps and then open it" style="ellipse;whiteSpace=wrap;html=1;" vertex="1" parent="1">
          <mxGeometry x="450" y="-60" width="120" height="80" as="geometry" />
        </mxCell>
        <mxCell id="qAF3_04ZeRXYkpaXE9Lb-30" style="edgeStyle=orthogonalEdgeStyle;rounded=0;orthogonalLoop=1;jettySize=auto;html=1;exitX=0;exitY=0;exitDx=0;exitDy=0;entryX=0.5;entryY=1;entryDx=0;entryDy=0;" edge="1" parent="1" source="qAF3_04ZeRXYkpaXE9Lb-26" target="qAF3_04ZeRXYkpaXE9Lb-29">
          <mxGeometry relative="1" as="geometry" />
        </mxCell>
        <mxCell id="qAF3_04ZeRXYkpaXE9Lb-26" value="keep going deeper" style="ellipse;whiteSpace=wrap;html=1;" vertex="1" parent="1">
          <mxGeometry x="320" y="-70" width="120" height="80" as="geometry" />
        </mxCell>
        <mxCell id="qAF3_04ZeRXYkpaXE9Lb-51" style="edgeStyle=orthogonalEdgeStyle;rounded=0;orthogonalLoop=1;jettySize=auto;html=1;exitX=0;exitY=0;exitDx=0;exitDy=0;entryX=0.5;entryY=0;entryDx=0;entryDy=0;" edge="1" parent="1" source="qAF3_04ZeRXYkpaXE9Lb-27" target="qAF3_04ZeRXYkpaXE9Lb-1">
          <mxGeometry relative="1" as="geometry" />
        </mxCell>
        <mxCell id="qAF3_04ZeRXYkpaXE9Lb-27" value="You recieve an enchanted Boomerang" style="ellipse;whiteSpace=wrap;html=1;" vertex="1" parent="1">
          <mxGeometry x="580" y="-140" width="120" height="80" as="geometry" />
        </mxCell>
        <mxCell id="qAF3_04ZeRXYkpaXE9Lb-31" style="edgeStyle=orthogonalEdgeStyle;rounded=0;orthogonalLoop=1;jettySize=auto;html=1;exitX=0.5;exitY=0;exitDx=0;exitDy=0;" edge="1" parent="1" source="qAF3_04ZeRXYkpaXE9Lb-29">
          <mxGeometry relative="1" as="geometry">
            <mxPoint x="290" y="-220" as="targetPoint" />
          </mxGeometry>
        </mxCell>
        <mxCell id="qAF3_04ZeRXYkpaXE9Lb-29" value="You mine some platinum ore and find some life crystals" style="ellipse;whiteSpace=wrap;html=1;" vertex="1" parent="1">
          <mxGeometry x="230" y="-190" width="120" height="80" as="geometry" />
        </mxCell>
        <mxCell id="qAF3_04ZeRXYkpaXE9Lb-36" style="edgeStyle=orthogonalEdgeStyle;rounded=0;orthogonalLoop=1;jettySize=auto;html=1;exitX=0;exitY=0.5;exitDx=0;exitDy=0;" edge="1" parent="1" source="qAF3_04ZeRXYkpaXE9Lb-33" target="qAF3_04ZeRXYkpaXE9Lb-1">
          <mxGeometry relative="1" as="geometry" />
        </mxCell>
        <mxCell id="qAF3_04ZeRXYkpaXE9Lb-33" value="You consume the life crystals and make platinum armor; +300hp and + platinum armor" style="ellipse;whiteSpace=wrap;html=1;" vertex="1" parent="1">
          <mxGeometry x="150" y="-340" width="280" height="120" as="geometry" />
        </mxCell>
        <mxCell id="qAF3_04ZeRXYkpaXE9Lb-34" style="edgeStyle=orthogonalEdgeStyle;rounded=0;orthogonalLoop=1;jettySize=auto;html=1;exitX=1;exitY=0;exitDx=0;exitDy=0;entryX=0.242;entryY=0.988;entryDx=0;entryDy=0;entryPerimeter=0;" edge="1" parent="1" source="qAF3_04ZeRXYkpaXE9Lb-4" target="qAF3_04ZeRXYkpaXE9Lb-26">
          <mxGeometry relative="1" as="geometry" />
        </mxCell>
        <mxCell id="qAF3_04ZeRXYkpaXE9Lb-38" value="" style="edgeStyle=orthogonalEdgeStyle;rounded=0;orthogonalLoop=1;jettySize=auto;html=1;" edge="1" parent="1" source="qAF3_04ZeRXYkpaXE9Lb-37" target="qAF3_04ZeRXYkpaXE9Lb-1">
          <mxGeometry relative="1" as="geometry" />
        </mxCell>
        <mxCell id="qAF3_04ZeRXYkpaXE9Lb-37" value="Loaded into a new world" style="ellipse;whiteSpace=wrap;html=1;" vertex="1" parent="1">
          <mxGeometry x="-473" y="150" width="120" height="80" as="geometry" />
        </mxCell>
        <mxCell id="qAF3_04ZeRXYkpaXE9Lb-41" style="edgeStyle=orthogonalEdgeStyle;rounded=0;orthogonalLoop=1;jettySize=auto;html=1;exitX=0;exitY=1;exitDx=0;exitDy=0;" edge="1" parent="1" source="qAF3_04ZeRXYkpaXE9Lb-40">
          <mxGeometry relative="1" as="geometry">
            <mxPoint x="38.000000000000455" y="460" as="targetPoint" />
          </mxGeometry>
        </mxCell>
        <mxCell id="qAF3_04ZeRXYkpaXE9Lb-42" value="&lt;font style=&quot;font-size: 13px;&quot;&gt;If have platinum or better armor and 400hp&lt;/font&gt;" style="edgeLabel;html=1;align=center;verticalAlign=middle;resizable=0;points=[];" vertex="1" connectable="0" parent="qAF3_04ZeRXYkpaXE9Lb-41">
          <mxGeometry x="-0.0816" y="-2" relative="1" as="geometry">
            <mxPoint as="offset" />
          </mxGeometry>
        </mxCell>
        <mxCell id="qAF3_04ZeRXYkpaXE9Lb-40" value="Fight the Eye of Cthulu" style="ellipse;whiteSpace=wrap;html=1;" vertex="1" parent="1">
          <mxGeometry x="20" y="320" width="120" height="80" as="geometry" />
        </mxCell>
        <mxCell id="qAF3_04ZeRXYkpaXE9Lb-59" style="edgeStyle=orthogonalEdgeStyle;rounded=0;orthogonalLoop=1;jettySize=auto;html=1;exitX=0.5;exitY=1;exitDx=0;exitDy=0;" edge="1" parent="1" target="qAF3_04ZeRXYkpaXE9Lb-60">
          <mxGeometry relative="1" as="geometry">
            <mxPoint x="38" y="610" as="targetPoint" />
            <mxPoint x="38" y="540" as="sourcePoint" />
          </mxGeometry>
        </mxCell>
        <mxCell id="qAF3_04ZeRXYkpaXE9Lb-46" value="" style="endArrow=classic;html=1;rounded=0;" edge="1" parent="1" target="qAF3_04ZeRXYkpaXE9Lb-74">
          <mxGeometry width="50" height="50" relative="1" as="geometry">
            <mxPoint x="40" y="430" as="sourcePoint" />
            <mxPoint x="240.05081311297045" y="499.34860786165837" as="targetPoint" />
          </mxGeometry>
        </mxCell>
        <mxCell id="qAF3_04ZeRXYkpaXE9Lb-48" value="&lt;font style=&quot;font-size: 15px;&quot;&gt;Else&lt;/font&gt;" style="edgeLabel;html=1;align=center;verticalAlign=middle;resizable=0;points=[];" vertex="1" connectable="0" parent="qAF3_04ZeRXYkpaXE9Lb-46">
          <mxGeometry x="0.0231" relative="1" as="geometry">
            <mxPoint as="offset" />
          </mxGeometry>
        </mxCell>
        <mxCell id="qAF3_04ZeRXYkpaXE9Lb-50" style="edgeStyle=orthogonalEdgeStyle;rounded=0;orthogonalLoop=1;jettySize=auto;html=1;exitX=0;exitY=0.5;exitDx=0;exitDy=0;entryX=0.692;entryY=0;entryDx=0;entryDy=0;entryPerimeter=0;" edge="1" parent="1" source="qAF3_04ZeRXYkpaXE9Lb-27" target="qAF3_04ZeRXYkpaXE9Lb-26">
          <mxGeometry relative="1" as="geometry" />
        </mxCell>
        <mxCell id="qAF3_04ZeRXYkpaXE9Lb-53" value="Fight the Eater Of Worlds" style="ellipse;whiteSpace=wrap;html=1;" vertex="1" parent="1">
          <mxGeometry x="760" y="290" width="120" height="80" as="geometry" />
        </mxCell>
        <mxCell id="qAF3_04ZeRXYkpaXE9Lb-66" style="edgeStyle=orthogonalEdgeStyle;rounded=0;orthogonalLoop=1;jettySize=auto;html=1;exitX=1;exitY=1;exitDx=0;exitDy=0;" edge="1" parent="1" source="qAF3_04ZeRXYkpaXE9Lb-60" target="qAF3_04ZeRXYkpaXE9Lb-65">
          <mxGeometry relative="1" as="geometry" />
        </mxCell>
        <mxCell id="qAF3_04ZeRXYkpaXE9Lb-60" value="YOU WIN!!!!!!!" style="ellipse;whiteSpace=wrap;html=1;" vertex="1" parent="1">
          <mxGeometry x="-22" y="570" width="120" height="80" as="geometry" />
        </mxCell>
        <mxCell id="qAF3_04ZeRXYkpaXE9Lb-62" value="" style="edgeStyle=orthogonalEdgeStyle;rounded=0;orthogonalLoop=1;jettySize=auto;html=1;exitX=0.5;exitY=1;exitDx=0;exitDy=0;entryX=0.45;entryY=0.988;entryDx=0;entryDy=0;entryPerimeter=0;" edge="1" parent="1" source="qAF3_04ZeRXYkpaXE9Lb-60" target="qAF3_04ZeRXYkpaXE9Lb-64">
          <mxGeometry relative="1" as="geometry">
            <mxPoint x="-76" y="709.04" as="targetPoint" />
            <mxPoint x="38" y="650" as="sourcePoint" />
          </mxGeometry>
        </mxCell>
        <mxCell id="qAF3_04ZeRXYkpaXE9Lb-67" style="edgeStyle=orthogonalEdgeStyle;rounded=0;orthogonalLoop=1;jettySize=auto;html=1;entryX=0.5;entryY=1;entryDx=0;entryDy=0;exitX=0.042;exitY=0.375;exitDx=0;exitDy=0;exitPerimeter=0;" edge="1" parent="1" source="qAF3_04ZeRXYkpaXE9Lb-64">
          <mxGeometry relative="1" as="geometry">
            <mxPoint x="-140" y="701" as="sourcePoint" />
            <mxPoint x="-220" y="220.96" as="targetPoint" />
          </mxGeometry>
        </mxCell>
        <mxCell id="qAF3_04ZeRXYkpaXE9Lb-64" value="Keep playing" style="ellipse;whiteSpace=wrap;html=1;" vertex="1" parent="1">
          <mxGeometry x="-136" y="669.04" width="120" height="80" as="geometry" />
        </mxCell>
        <mxCell id="qAF3_04ZeRXYkpaXE9Lb-65" value="End" style="ellipse;whiteSpace=wrap;html=1;" vertex="1" parent="1">
          <mxGeometry x="120" y="700" width="120" height="80" as="geometry" />
        </mxCell>
        <mxCell id="qAF3_04ZeRXYkpaXE9Lb-69" value="YOU DIED" style="shape=hexagon;perimeter=hexagonPerimeter2;whiteSpace=wrap;html=1;fixedSize=1;" vertex="1" parent="1">
          <mxGeometry x="707" y="60" width="120" height="80" as="geometry" />
        </mxCell>
        <mxCell id="qAF3_04ZeRXYkpaXE9Lb-70" value="You see a dead-mans chest" style="shape=hexagon;perimeter=hexagonPerimeter2;whiteSpace=wrap;html=1;fixedSize=1;" vertex="1" parent="1">
          <mxGeometry x="370" y="60" width="140" height="80" as="geometry" />
        </mxCell>
        <mxCell id="qAF3_04ZeRXYkpaXE9Lb-72" value="TEXT" style="shape=hexagon;perimeter=hexagonPerimeter2;whiteSpace=wrap;html=1;fixedSize=1;" vertex="1" parent="1">
          <mxGeometry x="-400" y="-140" width="120" height="80" as="geometry" />
        </mxCell>
        <mxCell id="qAF3_04ZeRXYkpaXE9Lb-73" value="ACTION" style="ellipse;whiteSpace=wrap;html=1;" vertex="1" parent="1">
          <mxGeometry x="-400" y="-50" width="120" height="80" as="geometry" />
        </mxCell>
        <mxCell id="qAF3_04ZeRXYkpaXE9Lb-74" value="You died! The eye of Cthulu is way too strong for you" style="shape=hexagon;perimeter=hexagonPerimeter2;whiteSpace=wrap;html=1;fixedSize=1;" vertex="1" parent="1">
          <mxGeometry x="180.05" y="459.35" width="179.95" height="80" as="geometry" />
        </mxCell>
        <mxCell id="qAF3_04ZeRXYkpaXE9Lb-75" value="You defeated the eye of Cthulu!!!" style="shape=hexagon;perimeter=hexagonPerimeter2;whiteSpace=wrap;html=1;fixedSize=1;" vertex="1" parent="1">
          <mxGeometry x="-40" y="459" width="150" height="80" as="geometry" />
        </mxCell>
        <mxCell id="qAF3_04ZeRXYkpaXE9Lb-76" value="Your gear is too weak and you die to an Eater Of Souls" style="shape=hexagon;perimeter=hexagonPerimeter2;whiteSpace=wrap;html=1;fixedSize=1;" vertex="1" parent="1">
          <mxGeometry x="730" y="190" width="240" height="80" as="geometry" />
        </mxCell>
        <mxCell id="qAF3_04ZeRXYkpaXE9Lb-82" style="edgeStyle=orthogonalEdgeStyle;rounded=0;orthogonalLoop=1;jettySize=auto;html=1;exitX=1;exitY=0.5;exitDx=0;exitDy=0;" edge="1" parent="1" source="qAF3_04ZeRXYkpaXE9Lb-81" target="qAF3_04ZeRXYkpaXE9Lb-83">
          <mxGeometry relative="1" as="geometry">
            <mxPoint x="720" y="479.6666666666665" as="targetPoint" />
          </mxGeometry>
        </mxCell>
        <mxCell id="qAF3_04ZeRXYkpaXE9Lb-81" value="You find a dungeon" style="shape=hexagon;perimeter=hexagonPerimeter2;whiteSpace=wrap;html=1;fixedSize=1;" vertex="1" parent="1">
          <mxGeometry x="550" y="440" width="120" height="80" as="geometry" />
        </mxCell>
        <mxCell id="qAF3_04ZeRXYkpaXE9Lb-87" style="edgeStyle=orthogonalEdgeStyle;rounded=0;orthogonalLoop=1;jettySize=auto;html=1;" edge="1" parent="1" source="qAF3_04ZeRXYkpaXE9Lb-83" target="qAF3_04ZeRXYkpaXE9Lb-86">
          <mxGeometry relative="1" as="geometry" />
        </mxCell>
        <mxCell id="qAF3_04ZeRXYkpaXE9Lb-83" value="enter dungeon" style="ellipse;whiteSpace=wrap;html=1;" vertex="1" parent="1">
          <mxGeometry x="870" y="440" width="120" height="80" as="geometry" />
        </mxCell>
        <mxCell id="qAF3_04ZeRXYkpaXE9Lb-85" value="" style="endArrow=classic;html=1;rounded=0;exitX=0.195;exitY=0.907;exitDx=0;exitDy=0;exitPerimeter=0;entryX=0.782;entryY=0.885;entryDx=0;entryDy=0;entryPerimeter=0;" edge="1" parent="1" source="qAF3_04ZeRXYkpaXE9Lb-53" target="qAF3_04ZeRXYkpaXE9Lb-1">
          <mxGeometry width="50" height="50" relative="1" as="geometry">
            <mxPoint x="680" y="400" as="sourcePoint" />
            <mxPoint x="190" y="370" as="targetPoint" />
            <Array as="points">
              <mxPoint x="490" y="430" />
            </Array>
          </mxGeometry>
        </mxCell>
        <mxCell id="qAF3_04ZeRXYkpaXE9Lb-86" value="YOU DIED" style="ellipse;whiteSpace=wrap;html=1;" vertex="1" parent="1">
          <mxGeometry x="1160" y="440" width="120" height="80" as="geometry" />
        </mxCell>
        <mxCell id="qAF3_04ZeRXYkpaXE9Lb-92" style="edgeStyle=orthogonalEdgeStyle;rounded=0;orthogonalLoop=1;jettySize=auto;html=1;exitX=1;exitY=0.5;exitDx=0;exitDy=0;" edge="1" parent="1" source="qAF3_04ZeRXYkpaXE9Lb-88" target="qAF3_04ZeRXYkpaXE9Lb-91">
          <mxGeometry relative="1" as="geometry" />
        </mxCell>
        <mxCell id="qAF3_04ZeRXYkpaXE9Lb-88" value="Kill Skeletron" style="ellipse;whiteSpace=wrap;html=1;" vertex="1" parent="1">
          <mxGeometry x="700" y="589" width="120" height="80" as="geometry" />
        </mxCell>
        <mxCell id="qAF3_04ZeRXYkpaXE9Lb-89" style="edgeStyle=orthogonalEdgeStyle;rounded=0;orthogonalLoop=1;jettySize=auto;html=1;exitX=0.5;exitY=1;exitDx=0;exitDy=0;entryX=0;entryY=0.638;entryDx=0;entryDy=0;entryPerimeter=0;" edge="1" parent="1" source="qAF3_04ZeRXYkpaXE9Lb-81" target="qAF3_04ZeRXYkpaXE9Lb-88">
          <mxGeometry relative="1" as="geometry" />
        </mxCell>
        <mxCell id="qAF3_04ZeRXYkpaXE9Lb-90" value="&lt;font style=&quot;font-size: 16px;&quot;&gt;Option appears only if Eater Of Worlds has been defeated&lt;/font&gt;" style="edgeLabel;html=1;align=center;verticalAlign=middle;resizable=0;points=[];" vertex="1" connectable="0" parent="qAF3_04ZeRXYkpaXE9Lb-89">
          <mxGeometry x="-0.5038" relative="1" as="geometry">
            <mxPoint y="-12" as="offset" />
          </mxGeometry>
        </mxCell>
        <mxCell id="qAF3_04ZeRXYkpaXE9Lb-93" style="edgeStyle=orthogonalEdgeStyle;rounded=0;orthogonalLoop=1;jettySize=auto;html=1;exitX=1;exitY=0.5;exitDx=0;exitDy=0;" edge="1" parent="1" source="qAF3_04ZeRXYkpaXE9Lb-91" target="qAF3_04ZeRXYkpaXE9Lb-95">
          <mxGeometry relative="1" as="geometry">
            <mxPoint x="1130" y="629.2962962962961" as="targetPoint" />
          </mxGeometry>
        </mxCell>
        <mxCell id="qAF3_04ZeRXYkpaXE9Lb-91" value="enter dungeon" style="ellipse;whiteSpace=wrap;html=1;" vertex="1" parent="1">
          <mxGeometry x="930" y="589" width="120" height="80" as="geometry" />
        </mxCell>
        <mxCell id="qAF3_04ZeRXYkpaXE9Lb-95" value="YOU WIN!&lt;div&gt;100% completion unlocked!!!&lt;/div&gt;" style="ellipse;whiteSpace=wrap;html=1;" vertex="1" parent="1">
          <mxGeometry x="1110" y="589.0362962962961" width="120" height="80" as="geometry" />
        </mxCell>
      </root>
    </mxGraphModel>
  </diagram>
</mxfile>
